<svg xmlns="http://www.w3.org/2000/svg" width="826" height="441.083" viewBox="0 0 826 441.083">
  <g id="Group_12453" data-name="Group 12453" transform="translate(-134 -9768.206)">
    <g id="Group_12451" data-name="Group 12451" transform="translate(-99.322 9435.659)">
      <path id="Path_18080" data-name="Path 18080" d="M1002.145,772.559l-139.131.869-177.437-.6-396.7-1.336s-56.907-42.827-55.527-117.457c.881-47.686,12.643-148.346,135.905-171.877C484.861,460.088,454.123,319.7,624.582,333.5c67.259,5.443,97.1,59.469,149.085,45.076,219.674-60.821,267.9,65.654,284.434,188.434C1064.2,612.3,1047.73,753.257,1002.145,772.559Z" transform="translate(0 0)" fill="#dbfcf2" opacity="0.26"/>
      <g id="Group_12420" data-name="Group 12420" transform="translate(620.564 383.061)">
        <path id="Path_18081" data-name="Path 18081" d="M1502.52,537.779h-40.038a3.352,3.352,0,0,1-3.342-3.342V495.792a3.352,3.352,0,0,1,3.342-3.342h40.038a3.352,3.352,0,0,1,3.342,3.342v38.645A3.356,3.356,0,0,1,1502.52,537.779Z" transform="translate(-1459.14 -492.45)" fill="#a8e6d3"/>
        <path id="Path_18082" data-name="Path 18082" d="M1505.161,540.069h-36.569a3.062,3.062,0,0,1-3.052-3.052v-35.3a3.062,3.062,0,0,1,3.052-3.052h36.569a3.062,3.062,0,0,1,3.052,3.052v35.3A3.056,3.056,0,0,1,1505.161,540.069Z" transform="translate(-1463.518 -496.705)" fill="#dbfcf2"/>
        <g id="Group_12416" data-name="Group 12416" transform="translate(5.516 5.137)">
          <g id="Group_12414" data-name="Group 12414" transform="translate(16.876)">
            <path id="Path_18083" data-name="Path 18083" d="M1530.02,509.677a.967.967,0,1,1,.967.967A.967.967,0,0,1,1530.02,509.677Z" transform="translate(-1530.02 -508.71)" fill="#a8e6d3"/>
            <path id="Path_18084" data-name="Path 18084" d="M1554.476,515.022a.969.969,0,1,1,.376,1.317A.969.969,0,0,1,1554.476,515.022Z" transform="translate(-1546.667 -512.688)" fill="#a8e6d3"/>
            <path id="Path_18085" data-name="Path 18085" d="M1574.961,532.584a.969.969,0,1,1-.287,1.339A.97.97,0,0,1,1574.961,532.584Z" transform="translate(-1560.461 -524.936)" fill="#a8e6d3"/>
            <path id="Path_18086" data-name="Path 18086" d="M1584.317,558.97a.967.967,0,1,1-.967.967A.967.967,0,0,1,1584.317,558.97Z" transform="translate(-1566.503 -543.093)" fill="#a8e6d3"/>
            <circle id="Ellipse_133" data-name="Ellipse 133" cx="0.967" cy="0.967" r="0.967" transform="translate(14.472 25.143)" fill="#a8e6d3"/>
            <path id="Path_18087" data-name="Path 18087" d="M1558.242,607.864a.967.967,0,1,1-1.368,0A.965.965,0,0,1,1558.242,607.864Z" transform="translate(-1548.197 -576.347)" fill="#a8e6d3"/>
            <path id="Path_18088" data-name="Path 18088" d="M1530.02,616.327a.967.967,0,1,1,.967.967A.967.967,0,0,1,1530.02,616.327Z" transform="translate(-1530.02 -581.669)" fill="#a8e6d3"/>
          </g>
          <g id="Group_12415" data-name="Group 12415" transform="translate(0 1.837)">
            <path id="Path_18089" data-name="Path 18089" d="M1507.4,515.022a.969.969,0,1,0-.376,1.317A.969.969,0,0,0,1507.4,515.022Z" transform="translate(-1496.428 -514.524)" fill="#a8e6d3"/>
            <path id="Path_18090" data-name="Path 18090" d="M1486.913,532.584a.969.969,0,1,0,.287,1.339A.969.969,0,0,0,1486.913,532.584Z" transform="translate(-1482.633 -526.773)" fill="#a8e6d3"/>
            <path id="Path_18091" data-name="Path 18091" d="M1477.567,558.97a.967.967,0,1,0,.967.967A.967.967,0,0,0,1477.567,558.97Z" transform="translate(-1476.6 -544.929)" fill="#a8e6d3"/>
            <path id="Path_18092" data-name="Path 18092" d="M1484.394,588.574a.967.967,0,1,0,1.368,0A.965.965,0,0,0,1484.394,588.574Z" transform="translate(-1481.738 -564.987)" fill="#a8e6d3"/>
            <circle id="Ellipse_134" data-name="Ellipse 134" cx="0.967" cy="0.967" r="0.967" transform="translate(8.454 29.4)" fill="#a8e6d3"/>
          </g>
        </g>
        <g id="Group_12419" data-name="Group 12419" transform="translate(23.099 9.891)">
          <path id="Path_18093" data-name="Path 18093" d="M1532.26,559.937a.967.967,0,1,1,.967.967A.967.967,0,0,1,1532.26,559.937Z" transform="translate(-1532.26 -547.847)" fill="#a8e6d3"/>
          <g id="Group_12417" data-name="Group 12417" transform="translate(0.834)">
            <rect id="Rectangle_1226" data-name="Rectangle 1226" width="0.265" height="12.09" fill="#a8e6d3"/>
          </g>
          <g id="Group_12418" data-name="Group 12418" transform="translate(0.605 6.732)">
            <rect id="Rectangle_1227" data-name="Rectangle 1227" width="8.15" height="0.793" transform="translate(0 5.034) rotate(-38.141)" fill="#a8e6d3"/>
          </g>
        </g>
      </g>
      <g id="Group_12427" data-name="Group 12427" transform="translate(312.497 567.063)">
        <g id="Group_12422" data-name="Group 12422" transform="translate(51.824 38.703)">
          <path id="Path_18094" data-name="Path 18094" d="M677.486,1213.834s-6.782-7.913-.417-12.94c0,0,4.65-2.815,8.441-2.587,0,0-5.37,9.006-3.633,9.9s5.263-10.469,5.263-10.469,10.58-1.027,13.982.61c0,0-9.044,7.4-7.139,7.841s11.673-6.823,11.673-6.823,9.847,1.674,9.322,7.683-3.917,7.863-5.408,7.7-10.213-3.491-10.4-2.268,5.061,5.216,8.738,5.4c0,0-6.94,7.654-11.556,5.446s-5.007-5.712-7.885-7.026-5.333-1.311-4.145.029,6.391,2.641,8.037,5.55,3.121,4.871-1.652,4.154-12.532-4.211-12.873-8.21Z" transform="translate(-666.022 -1197.424)" fill="#a8e6d3"/>
          <g id="Group_12421" data-name="Group 12421" transform="translate(0 9.746)">
            <path id="Path_18095" data-name="Path 18095" d="M704.051,1228.32s-26.745-1.03-32.649,6.618a19.328,19.328,0,0,1-5.326,7.474l-.625,1.709s4.634-4.887,6.293-5.181C671.74,1238.937,669.149,1229.463,704.051,1228.32Z" transform="translate(-659.938 -1228.273)" fill="#a8e6d3"/>
            <path id="Path_18096" data-name="Path 18096" d="M654.138,1271.573A16.793,16.793,0,0,0,648,1283.4l1.043.095s1.832-7.844,5.146-10.911S654.138,1271.573,654.138,1271.573Z" transform="translate(-648 -1257.434)" fill="#a8e6d3"/>
          </g>
        </g>
        <g id="Group_12424" data-name="Group 12424" transform="translate(0 17.223)">
          <path id="Path_18097" data-name="Path 18097" d="M523.525,1157.369s10.788-6.043,5.756-14.241c0,0-4.028-5.035-8.343-6.331,0,0,2.3,12.229,0,12.516s-1.583-13.811-1.583-13.811-11.366-5.465-15.824-5.036c0,0,7.048,11.941,4.748,11.654s-10.213-12.371-10.213-12.371-11.654-2.158-13.524,4.748,1.15,10.359,2.878,10.791,12.8.288,12.516,1.725-7.768,3.74-11.941,2.445c0,0,4.6,11.366,10.646,10.791s7.913-4.315,11.654-4.6,6.473.72,4.6,1.725-8.2.329-11.221,2.9-5.468,4.151.145,5.3,15.682.433,17.694-3.886Z" transform="translate(-483.952 -1129.43)" fill="#a8e6d3"/>
          <g id="Group_12423" data-name="Group 12423" transform="translate(5.907 7.222)">
            <path id="Path_18098" data-name="Path 18098" d="M502.65,1152.29s30.21,9.784,33.663,20.717a22.922,22.922,0,0,0,2.878,10.5v2.158s-3.165-7.339-4.89-8.343C534.3,1177.322,541.061,1167.826,502.65,1152.29Z" transform="translate(-502.65 -1152.29)" fill="#a8e6d3"/>
            <path id="Path_18099" data-name="Path 18099" d="M615.2,1248.2a19.925,19.925,0,0,1,2,15.688l-1.2-.322s1.163-9.487-1.273-14.257S615.2,1248.2,615.2,1248.2Z" transform="translate(-578.656 -1216.985)" fill="#a8e6d3"/>
          </g>
        </g>
        <g id="Group_12426" data-name="Group 12426" transform="translate(47.386)">
          <path id="Path_18100" data-name="Path 18100" d="M643.3,1111.738s-14.222-7.964-7.585-18.774c0,0,5.31-6.637,11-8.343,0,0-3.033,16.12,0,16.5s2.085-18.206,2.085-18.206,14.98-7.206,20.859-6.637c0,0-9.291,15.741-6.258,15.362s13.464-16.31,13.464-16.31,15.359-2.843,17.826,6.258-1.516,13.653-3.794,14.222-16.879.379-16.5,2.274,10.242,4.931,15.742,3.225c0,0-6.069,14.98-14.032,14.222s-10.431-5.689-15.359-6.068-8.533.948-6.069,2.274,10.81.436,14.791,3.819,7.206,5.471-.19,6.988-20.67.569-23.326-5.121S643.3,1111.738,643.3,1111.738Z" transform="translate(-633.954 -1074.909)" fill="#a8e6d3"/>
          <g id="Group_12425" data-name="Group 12425" transform="translate(1.84 9.522)">
            <path id="Path_18101" data-name="Path 18101" d="M699.709,1105.05s-39.823,12.9-44.375,27.307a30.244,30.244,0,0,1-3.794,13.843v2.843s4.173-9.673,6.448-11C657.991,1138.046,649.076,1125.53,699.709,1105.05Z" transform="translate(-647.824 -1105.05)" fill="#a8e6d3"/>
            <path id="Path_18102" data-name="Path 18102" d="M643.5,1231.478s-6.141,9.325-2.641,20.679l1.58-.423s-1.532-12.5,1.681-18.793S643.5,1231.478,643.5,1231.478Z" transform="translate(-639.777 -1190.328)" fill="#a8e6d3"/>
          </g>
        </g>
        <path id="Path_18103" data-name="Path 18103" d="M601.71,1318.37a27.86,27.86,0,0,0,27.86-27.86H573.85A27.858,27.858,0,0,0,601.71,1318.37Z" transform="translate(-545.451 -1222.401)" fill="#a8e6d3"/>
        <path id="Path_18104" data-name="Path 18104" d="M629.12,1375.747H572.63a3.436,3.436,0,0,1,3.437-3.437h49.616a3.436,3.436,0,0,1,3.437,3.437Z" transform="translate(-544.616 -1278.36)" fill="#a8e6d3"/>
        <rect id="Rectangle_1228" data-name="Rectangle 1228" width="57.27" height="0.853" transform="translate(27.483 68.109)" fill="#fff"/>
      </g>
      <g id="Group_12432" data-name="Group 12432" transform="translate(303.913 664.45)">
        <path id="Path_18105" data-name="Path 18105" d="M555.7,1384.89v2.672c0,.935-.3,1.7-.673,1.7h-97.57c-.37,0-.673-.765-.673-1.7v-2.672c0-.935.3-1.7.673-1.7H555.02C555.393,1383.19,555.7,1383.955,555.7,1384.89Z" transform="translate(-456.78 -1383.19)" fill="#a8e6d3"/>
        <path id="Path_18106" data-name="Path 18106" d="M599.485,1384.89v2.672c0,.935-.278,1.7-.619,1.7h-77.46c-.338,0-.616-.765-.616-1.7v-2.672c0-.935.278-1.7.616-1.7h77.46C599.207,1383.19,599.485,1383.955,599.485,1384.89Z" transform="translate(-500.569 -1383.19)" fill="#a8e6d3"/>
        <rect id="Rectangle_1229" data-name="Rectangle 1229" width="69.268" height="100.96" transform="translate(4.953 6.075)" fill="#a8e6d3"/>
        <rect id="Rectangle_1230" data-name="Rectangle 1230" width="69.268" height="100.96" transform="translate(24.366 6.075)" fill="#ccffef"/>
        <g id="Group_12431" data-name="Group 12431" transform="translate(28.087 8.927)">
          <g id="Group_12428" data-name="Group 12428">
            <path id="Path_18107" data-name="Path 18107" d="M607.513,1503.985H545.69V1411.45h61.823Zm-61.156-.67h60.489v-91.2H546.357Z" transform="translate(-545.69 -1411.45)" fill="#a8e6d3"/>
          </g>
          <g id="Group_12429" data-name="Group 12429" transform="translate(0.335 30.611)">
            <rect id="Rectangle_1231" data-name="Rectangle 1231" width="61.156" height="0.667" fill="#a8e6d3"/>
          </g>
          <g id="Group_12430" data-name="Group 12430" transform="translate(0.335 61.819)">
            <rect id="Rectangle_1232" data-name="Rectangle 1232" width="61.156" height="0.667" fill="#a8e6d3"/>
          </g>
          <path id="Path_18108" data-name="Path 18108" d="M636.639,1426H625.291a1.006,1.006,0,0,1-1-1h0a1.006,1.006,0,0,1,1-1h11.347a1.006,1.006,0,0,1,1,1h0A1.006,1.006,0,0,1,636.639,1426Z" transform="translate(-599.46 -1420.035)" fill="#a8e6d3"/>
          <path id="Path_18109" data-name="Path 18109" d="M636.639,1522.6H625.291a1.006,1.006,0,0,1-1-1h0a1.006,1.006,0,0,1,1-1h11.347a1.006,1.006,0,0,1,1,1h0A1,1,0,0,1,636.639,1522.6Z" transform="translate(-599.46 -1486.119)" fill="#a8e6d3"/>
          <path id="Path_18110" data-name="Path 18110" d="M636.639,1623.313H625.291a1.006,1.006,0,0,1-1-1h0a1.006,1.006,0,0,1,1-1h11.347a1.006,1.006,0,0,1,1,1h0A1.006,1.006,0,0,1,636.639,1623.313Z" transform="translate(-599.46 -1555.014)" fill="#a8e6d3"/>
        </g>
      </g>
      <g id="Group_12433" data-name="Group 12433" transform="translate(310.064 641.405)">
        <path id="Path_18111" data-name="Path 18111" d="M490.393,1320.93v14.029H476.25v-14.073a3.469,3.469,0,0,1,.022-.4,4.319,4.319,0,0,1,2.609-3.57,2.855,2.855,0,0,0,1.788-2.464l.1-2.028h5.193l.032,2.022a2.758,2.758,0,0,0,1.734,2.474,4.36,4.36,0,0,1,2.638,3.566A4.226,4.226,0,0,1,490.393,1320.93Z" transform="translate(-476.25 -1311.731)" fill="#a8e6d3"/>
        <path id="Path_18112" data-name="Path 18112" d="M495.069,1311.82H489.01l.161-1.58h5.737Z" transform="translate(-484.979 -1310.24)" fill="#fff"/>
        <path id="Path_18113" data-name="Path 18113" d="M490.393,1338.388v9.048H476.25v-9.092a3.474,3.474,0,0,1,.022-.4h14.1A4.221,4.221,0,0,1,490.393,1338.388Z" transform="translate(-476.25 -1329.189)" fill="#fff"/>
      </g>
      <g id="Group_12434" data-name="Group 12434" transform="translate(327.916 651.64)">
        <path id="Path_18114" data-name="Path 18114" d="M540.67,1348.621v7.847h-7.91V1348.6a1.74,1.74,0,0,1,.013-.224,2.415,2.415,0,0,1,1.459-2,1.6,1.6,0,0,0,1-1.38l.057-1.134h2.9l.019,1.131a1.54,1.54,0,0,0,.97,1.384,2.437,2.437,0,0,1,1.475,1.994A2.242,2.242,0,0,1,540.67,1348.621Z" transform="translate(-532.76 -1343.475)" fill="#a8e6d3"/>
        <path id="Path_18115" data-name="Path 18115" d="M543.286,1343.525H539.9l.088-.885h3.21Z" transform="translate(-537.644 -1342.64)" fill="#fff"/>
        <path id="Path_18116" data-name="Path 18116" d="M540.67,1358.39v5.061h-7.91v-5.086a1.74,1.74,0,0,1,.013-.224h7.885A2.154,2.154,0,0,1,540.67,1358.39Z" transform="translate(-532.76 -1353.244)" fill="#fff"/>
      </g>
      <g id="Group_12438" data-name="Group 12438" transform="translate(794.289 417.662)" opacity="0.5">
        <g id="Group_12436" data-name="Group 12436" transform="translate(0)">
          <rect id="Rectangle_1233" data-name="Rectangle 1233" width="187" height="354.897" fill="#77d1b5"/>
          <rect id="Rectangle_1234" data-name="Rectangle 1234" width="170.81" height="348.664" transform="translate(8.21 6.233)" fill="#dbfcf2"/>
          <path id="Path_18117" data-name="Path 18117" d="M2484.04,1149.031a7.555,7.555,0,1,1,7.55,7.841A7.7,7.7,0,0,1,2484.04,1149.031Z" transform="translate(-2333.995 -970.851)" fill="#a8e6d3"/>
          <g id="Group_12435" data-name="Group 12435" transform="translate(58.61 59.071)">
            <rect id="Rectangle_1235" data-name="Rectangle 1235" width="70.51" height="23.108" fill="#dbfcf2"/>
            <rect id="Rectangle_1236" data-name="Rectangle 1236" width="44.337" height="2.379" transform="translate(13.085 7.165)" fill="#a8e6d3"/>
            <rect id="Rectangle_1237" data-name="Rectangle 1237" width="31.925" height="2.379" transform="translate(19.292 13.568)" fill="#a8e6d3"/>
          </g>
        </g>
        <g id="Group_12437" data-name="Group 12437" transform="translate(57.763 58.193)">
          <path id="Path_18118" data-name="Path 18118" d="M2264.12,811.055h-72.2V786.19h72.2Zm-70.507-1.756h68.817V787.946h-68.817Z" transform="translate(-2191.92 -786.19)" fill="#a8e6d3"/>
        </g>
      </g>
      <g id="Group_12440" data-name="Group 12440" transform="translate(717.906 417.662)">
        <path id="Path_18119" data-name="Path 18119" d="M2039.654,1695.274H2020.03a47.476,47.476,0,0,1,1.564-7.045,19.888,19.888,0,0,1,1.112-2.827c1.908-3.81,14.029-1.387,14.029-1.387s1.125.964,2.006,4.65A39.293,39.293,0,0,1,2039.654,1695.274Z" transform="translate(-1940.185 -1341.675)" fill="#233862"/>
        <path id="Path_18120" data-name="Path 18120" d="M1875.689,772.49s-15.637,2.745-19.172,11.976-23.506,158.313-23.506,158.313,9.891,7.834,31.117,5.023S1875.689,772.49,1875.689,772.49Z" transform="translate(-1812.246 -718.625)" fill="#fff"/>
        <path id="Path_18121" data-name="Path 18121" d="M1807.45,1671.78c-.054,2.669-.388,5.2-1.359,6.192H1767.28c.493-1.406,1.889-3.516,5.876-4.164,4.527-.733,11.584-2.913,15.707-7.269a11.706,11.706,0,0,0,3.042-5.506c1.826-8.131,15.1,2.489,15.1,2.489A66.075,66.075,0,0,1,1807.45,1671.78Z" transform="translate(-1767.28 -1324.376)" fill="#233862"/>
        <path id="Path_18122" data-name="Path 18122" d="M1835.7,1293.045c4.337,1.384,12.627,5.607,17.893,3.62,3.4-1.283,22.426-56.313,23.661-80.382a62.063,62.063,0,0,1,.973-7.168c1.128-6.211,3.1-14.746,5.367-24.167,6.087-25.238,14.323-56.812,14.143-66.905-.275-15.663-46.678-3.282-46.678-3.282a167.762,167.762,0,0,0-3.829,31.452c-1.26,36.926-4.726,99.3-14.146,142.612A3.717,3.717,0,0,0,1835.7,1293.045Z" transform="translate(-1812.246 -949.593)" fill="#2b478b"/>
        <path id="Path_18123" data-name="Path 18123" d="M1943.48,1123.132l24.53,177.788s10.772,2.6,19.15.518c0,0,7.181-94.557,6.583-117.416s5.156-61.169-1.314-65.392S1943.48,1123.132,1943.48,1123.132Z" transform="translate(-1887.818 -954.628)" fill="#2b478b"/>
        <path id="Path_18124" data-name="Path 18124" d="M1950.758,775.377s-25.778-16.67-44.271-8.144c-2.947,1.358-6.309,5.149-8.713,7.8-6.685,7.364-19.744,124.356-19.744,124.356s37.072,12.557,72.728-4.262Z" transform="translate(-1843.043 -713.367)" fill="#77d1b5"/>
        <path id="Path_18125" data-name="Path 18125" d="M1866.773,771.15s-26.1,10.7-29.632,18.913-15.021,58.682-15.021,64.6,20,1.324,23.222-8.223c2.672-7.926,11.695-32.273,16.449-47.673Z" transform="translate(-1804.796 -717.708)" fill="#fff"/>
        <g id="Group_12439" data-name="Group 12439" transform="translate(56.63 0)">
          <path id="Path_18126" data-name="Path 18126" d="M1971.485,746.457a29.344,29.344,0,0,0,20.193-4.113,57.953,57.953,0,0,1-4.3-15.2c-.022-.18-.041-.354-.06-.521a15.47,15.47,0,0,1-.07-3.481h-14.73s-4.028,1.842-4.028,3.115q0,1.019-.019,1.952c-.028,1.693-.1,3.172-.186,4.442a40.54,40.54,0,0,1-.755,6.081S1965.732,745.329,1971.485,746.457Z" transform="translate(-1960.717 -684.865)" fill="#ffb27d"/>
          <path id="Path_18127" data-name="Path 18127" d="M1970.5,738.539c11.158,2.158,17.637-3.943,19.09-5.506.205-.224.313-.357.313-.357-.117-.06-.24-.111-.37-.164-4.154-1.681-13.581-.344-18.844,1.586C1970.658,735.79,1970.589,737.269,1970.5,738.539Z" transform="translate(-1962.932 -690.752)" fill="#e2915a"/>
          <path id="Path_18128" data-name="Path 18128" d="M1981.03,656.947c-1.993,10.731-15.843,10.381-21.826,9.7-1.684-.186-2.745-.4-2.745-.4-1.9-.509-2.957-3.5-3.45-7.417-.976-7.752.256-19.134,1.567-22.047,1.971-4.382,5.683-9.117,19.63-5.7S1983.589,643.2,1981.03,656.947Z" transform="translate(-1950.726 -621.091)" fill="#ffb27d"/>
          <path id="Path_18129" data-name="Path 18129" d="M1949.873,611.69c1.905-2.638,5.948-5.863,9.619-7.85,7.885-4.265,17.978.133,18.019.152,11.391,5.007,14.364,13.723,8.327,27.3-6.385,14.355-12.466,12.74-12.466,12.74s1.289-.8,1.172-5.276c-.006-.256-.016-.467-.028-.651a3.007,3.007,0,0,1,.951-2.448c1.415-1.264,2.1-5.083.919-6.144-1.428-1.283-3.437.275-4.078,1.475a1.749,1.749,0,0,1-2.5.553c-3.544-2.24-1.241-6.722-4.631-9.468s-10.26-.439-15.344-2.625C1943.182,616.966,1948.438,613.677,1949.873,611.69Z" transform="translate(-1946.544 -601.979)" fill="#233862"/>
        </g>
        <path id="Path_18130" data-name="Path 18130" d="M1951.521,952.917q3.369.867,6.675,1.419,2.928.5,5.844.745c11.031.96,22.113-.591,35.069-4.306q4.374-1.256,9.057-2.837c.332-.111-.853-34.364-2.217-69.692-.139-3.646-.284-7.31-.423-10.943-.063-1.542-.12-3.074-.183-4.6-1.242-31.246-2.467-59.466-2.726-60.985-.591-3.437-1.147-6.369-1.75-8.909-1.766-7.4-3.955-11.461-8.735-14.952-.464-.354-4.287-2.281-7.658-3.955-2.793-1.387-5.272-2.6-5.272-2.6h0c-1.112.547-2.445,3.09-3.841,6.663-2.565,6.587-5.336,16.673-7.262,24.2a.192.192,0,0,0-.01.038v0c-1.241,4.865-2.129,8.653-2.382,9.739-.43,1.835-1,5.389-1.668,10.2-.906,6.555-1.99,15.451-3.137,25.547-.117,1.036-.237,2.088-.354,3.15q-.2,1.815-.411,3.674c-.044.4-.089.8-.13,1.194-.442,4-.888,8.125-1.33,12.32-.37,3.469-5.626,5.974-5.99,9.5-.208,2.072-.648,21.178-1.21,27.275C1951.075,909.161,1951.363,950.87,1951.521,952.917Z" transform="translate(-1893.148 -717.811)" fill="#fff"/>
        <path id="Path_18131" data-name="Path 18131" d="M1994.739,907.45c.016.073.894,31.6-22.821,35.426s-7.958,4.843-7.958,4.843,44.618-1.9,45.354-3.074S1994.739,907.45,1994.739,907.45Z" transform="translate(-1898.318 -810.95)" fill="#fff"/>
        <path id="Path_18132" data-name="Path 18132" d="M2009.07,1048.6s.446.316,1.3.866c.016.006.028.019.044.025a111.324,111.324,0,0,0,29.989,12.826c1.639.445,3.339.866,5.083,1.254-.139-3.645-.284-7.31-.423-10.943a45.734,45.734,0,0,0,5.876-.812q-.1-.721-.19-1.441c-1.987-.815-3.964-1.6-5.869-2.347-1.551-.607-3.055-1.185-4.476-1.722-6.422-2.439-11.183-4.091-11.183-4.091l-19.008,6.021Z" transform="translate(-1932.687 -903.146)" fill="#fff"/>
        <path id="Path_18133" data-name="Path 18133" d="M1993.15,862.742s2.442.61,6.331,1.393a.1.1,0,0,1,.041.009c7.171,1.441,19.226,3.462,29.992,3.352,1.589-.019,3.15-.079,4.659-.2a45.656,45.656,0,0,0,5.876-.812c3.936-.831,7.231-2.237,9.389-4.432,16.017-16.313-8.741-74.866-13.944-80.562-6.078-6.653-17.169-8.984-23.292-9.787-.256-.032-.5-.066-.739-.095-2.155-.256-3.535-.31-3.611-.313h0s.48,1.545,1.286,4.164c.313,1.014.673,2.189,1.071,3.5,3.762,12.32,11.022,36.531,14.219,50.185,1.172,5,1.8,8.577,1.513,9.648-1.248,4.663-14.19,7.06-22.388,8.122-3.421.442-6.015.651-6.6.695a.775.775,0,0,0-.12.01l-.474,1.943-1.134,4.663-1.115,4.581Z" transform="translate(-1921.797 -717.811)" fill="#fff"/>
        <path id="Path_18134" data-name="Path 18134" d="M1827.571,996.13l55.005-2.316-11.158-68.554-55.009,2.319Z" transform="translate(-1800.89 -823.134)" fill="#00aa95"/>
        <path id="Path_18135" data-name="Path 18135" d="M1980.222,1012.664s-10.709-.745-11.246,1.75c-1.251,5.819,9.206,10.6,12.595,10.27S1982.687,1012.276,1980.222,1012.664Z" transform="translate(-1905.189 -882.856)" fill="#ffb27d"/>
        <path id="Path_18136" data-name="Path 18136" d="M1822.619,972.917s10.245-3.2,11.344-.9c2.565,5.37-6.5,12.437-9.875,12.9S1820.133,973.106,1822.619,972.917Z" transform="translate(-1804.091 -854.55)" fill="#ffb27d"/>
        <path id="Path_18137" data-name="Path 18137" d="M2014.5,760.39s4.5,2.148,6.764,5.386c0,0-16.838,29.234-16.762,28.962S2010.189,764.137,2014.5,760.39Z" transform="translate(-1929.561 -710.347)" fill="#fff"/>
        <path id="Path_18138" data-name="Path 18138" d="M1954.662,761.7a12.84,12.84,0,0,0-4.969,5.086l-2,25.522s4.274-18.73,6.451-27.2A14.19,14.19,0,0,0,1954.662,761.7Z" transform="translate(-1890.698 -711.243)" fill="#fff"/>
        <path id="Path_18139" data-name="Path 18139" d="M1885.212,924.022s-.436-1.9-2.938-1.681-16.569.913-16.569.913-2.714-.044-2.461,1.693Z" transform="translate(-1832.917 -821.125)" fill="#233862"/>
        <path id="Path_18140" data-name="Path 18140" d="M1967.65,719.875a5.876,5.876,0,0,1-4.773,1.15c-1.747-.306-2.726-2.578-2.726-2.578A13.175,13.175,0,0,1,1967.65,719.875Z" transform="translate(-1899.222 -681.596)" fill="#fff"/>
      </g>
      <path id="Path_18141" data-name="Path 18141" d="M1071.941,1723.669H263.794a.965.965,0,0,1-.964-.964v-.442a.965.965,0,0,1,.964-.964h808.151a.965.965,0,0,1,.963.964v.442A.97.97,0,0,1,1071.941,1723.669Z" transform="translate(-20.186 -950.039)" fill="#00aa95"/>
      <g id="Group_12442" data-name="Group 12442" transform="translate(533.818 448.486)">
        <path id="Path_18142" data-name="Path 18142" d="M1273.562,770.015c-1.182-2.281,25.8-10.491,26.223,12.014,0,0,50.538-1.241,26.406-29.411-8.353-9.752-7.493-17.814-7.244-25.32s-5.2-29.322-23.911-27.127c0,0-4.9-1.993-11.012,1.178C1270.125,708.565,1238.98,778.317,1273.562,770.015Z" transform="translate(-1234.67 -699.553)" fill="#163560"/>
        <path id="Path_18143" data-name="Path 18143" d="M1569.2,989.372s3.288-5.007,5.942-5.105,7.56-1.472,7.168-.49-3.437,1.08-3.731,1.668,4.517,1.472,5.892,1.57,4.615,0,4.518.689-5.841,3.535-9.891,3.143a27.51,27.51,0,0,0-9.06,1.178Z" transform="translate(-1447.686 -893.748)" fill="#ffb27d"/>
        <path id="Path_18144" data-name="Path 18144" d="M1418.6,920.787a49.3,49.3,0,0,0,5.032,7.61c3.908,4.9,9.935,10.551,17.5,11.669a18.783,18.783,0,0,0,10.4-1.687l.013,0c9.19-4.081,16.1-13.464,16.1-13.464a7.554,7.554,0,0,0-1.03-7.414s-18.559,4.173-20.325,3.292-12.077-30.586-14.531-34.32-10.823-5.671-10.823-5.671Z" transform="translate(-1344.662 -823.543)" fill="#00aa95"/>
        <path id="Path_18145" data-name="Path 18145" d="M1433.267,1010.177c3.908,4.9,9.935,10.551,17.5,11.669a18.782,18.782,0,0,0,10.4-1.687c-.36.047-9.537,1.182-13.2-5.364-3.731-6.678-7.768-17.283-13.312-13.748C1432.269,1002.57,1432.376,1006.361,1433.267,1010.177Z" transform="translate(-1354.296 -905.323)" fill="#00aa95"/>
        <path id="Path_18146" data-name="Path 18146" d="M1189.249,1636.228s-5.664,5.168-4.559,8.839,6.217,6.119,6.906,10.608,3.453,6.937,5.939,6.937h11.853s1.829-3.159-2.59-4.11-6.087-6.227-5.81-11.123a86.58,86.58,0,0,0-.414-11.423l-9.392-2.177Z" transform="translate(-1184.547 -1338.653)" fill="#233862"/>
        <path id="Path_18147" data-name="Path 18147" d="M1349.448,1648.48s-2.038,21.892.449,23.118l31.818-.066s0-3.671-5.111-4.489-14.089-3.807-15.609-10.472S1349.448,1648.48,1349.448,1648.48Z" transform="translate(-1296.817 -1348.709)" fill="#233862"/>
        <path id="Path_18148" data-name="Path 18148" d="M1279.069,921.893c6.549-14.683,10.554-18.9,9.79-23.456-.569-3.393,1.734-63.244,1.734-63.244.777-.24,2.334-.455,3.184-.644a7.993,7.993,0,0,0,5.835-5.073,40.745,40.745,0,0,0,1.981-13.5l.837.164,14.1,2.792s-.322,4.439-.332,8.618v.1a8.117,8.117,0,0,0,5.854,7.844c1.782.515,3.33.954,3.33.954s5.178,14.784,6.167,29.973-9.417,21.785.079,52.137C1341.324,949.554,1275.451,930.008,1279.069,921.893Z" transform="translate(-1249.11 -779.193)" fill="#ffb27d"/>
        <path id="Path_18149" data-name="Path 18149" d="M1367.425,819.293s-.322,4.438-.332,8.618c-7.891-.221-12.061-7.421-13.773-11.41Z" transform="translate(-1300.004 -779.556)" fill="#e8945b"/>
        <path id="Path_18150" data-name="Path 18150" d="M1365.4,769.648s-18.67.306-18.683-11.322-2.432-19.422,9.49-20.11,14.241,3.747,15.189,7.629S1370.254,769.266,1365.4,769.648Z" transform="translate(-1295.342 -725.953)" fill="#ffb27d"/>
        <path id="Path_18151" data-name="Path 18151" d="M1351.7,732.34s-5.111,13.644-12.958,15.663-11.249-.085-11.249-.085a22.208,22.208,0,0,0,7.266-13.126S1347.844,725.845,1351.7,732.34Z" transform="translate(-1282.334 -720.365)" fill="#163560"/>
        <path id="Path_18152" data-name="Path 18152" d="M1400.11,736.153s3.791,1.418,5.351,4.183a18.81,18.81,0,0,1,2.524,10.678s3.851-9.275-.477-14.519C1402.918,730.928,1400.11,736.153,1400.11,736.153Z" transform="translate(-1332.013 -723.069)" fill="#163560"/>
        <path id="Path_18153" data-name="Path 18153" d="M1393.45,813.618a4.691,4.691,0,0,0,3.867,1.573,3.435,3.435,0,0,0,2.878-1.9S1396.378,812.373,1393.45,813.618Z" transform="translate(-1327.457 -777.138)" fill="#ebf3fa"/>
        <path id="Path_18154" data-name="Path 18154" d="M1287.43,903.289s.069,8.855.547,16.876c.316,5.317.806,10.27,1.567,12.03,1.914,4.419,4.075,5.137,4.075,5.137l16.705,4.094,5.873,1.437,18.525-5.531s8.438-23.547,5.048-36.806a101.8,101.8,0,0,0-8.564-22.461s-15.116,14.8-34.8-1.254Z" transform="translate(-1254.929 -820.814)" fill="#00aa95"/>
        <path id="Path_18155" data-name="Path 18155" d="M1289.15,986.375c.316,5.317.806,10.27,1.567,12.03,1.914,4.419,4.075,5.137,4.075,5.137l16.705,4.094,7.256-2.132s-25.9-11.073-23.216-31.913Z" transform="translate(-1256.105 -887.02)" fill="#00aa95"/>
        <path id="Path_18156" data-name="Path 18156" d="M1366.842,1079.72s9.174,28.551,9.761,38.275-17.536,138.1-18.263,142.577c-.689,4.224-5.929,6.915-5.929,6.915a7.942,7.942,0,0,1-5.854.452c-4.776-1.349-6.283-2.963-6.283-2.963s-7.14-91.559-2.72-124.264a517.709,517.709,0,0,0,4.47-60.989h24.817Z" transform="translate(-1288.231 -959.623)" fill="#2b478b"/>
        <path id="Path_18157" data-name="Path 18157" d="M1238.663,1077.02s-13.991,18.774-15.3,31.467-2.047,57.27-4.827,69.644-12.99,36.184-12.99,74.771a7.7,7.7,0,0,0,4.337,3.39,35.966,35.966,0,0,0,3.816,1.055,6,6,0,0,0,6.71-3.184c6.9-13.9,28.893-58.727,30.021-68.033.8-6.587,7.74-50.169,22.887-75.744,3.636-6.141-2.23-30.557-2.23-30.557Z" transform="translate(-1198.915 -957.776)" fill="#2b478b"/>
        <path id="Path_18158" data-name="Path 18158" d="M1394.76,814.113s.322,1.371,3.731,1.159c0,0,2.862-.177,2.777-1.684A9.214,9.214,0,0,0,1394.76,814.113Z" transform="translate(-1328.353 -777.323)" fill="#fff"/>
        <path id="Path_18159" data-name="Path 18159" d="M1346.4,1065.76s-3.684,2.913-11,3.061c-8.738.177-30.39-2.227-30.39-2.227a17.856,17.856,0,0,0-.922,5.525s26.444,6.672,41.769.973C1345.856,1073.1,1347.834,1069.377,1346.4,1065.76Z" transform="translate(-1266.323 -950.073)" fill="#233862"/>
        <g id="Group_12441" data-name="Group 12441" transform="translate(67.188 117.25)">
          <path id="Path_18160" data-name="Path 18160" d="M1397.23,1075.224a4.018,4.018,0,1,1,3.987,4.514A4.28,4.28,0,0,1,1397.23,1075.224Zm1.324,0a2.709,2.709,0,1,0,2.666-3.191A2.968,2.968,0,0,0,1398.554,1075.224Z" transform="translate(-1397.23 -1070.71)" fill="#fff"/>
        </g>
        <path id="Path_18161" data-name="Path 18161" d="M1307.815,1143.1s1.453,3.386,3.292,3.889,3.228,2.18,3.9,2.673,1.864.635,1.532,1.163-3.652-.42-4.1-.588,2.66,3.125,3.677,4.145,3.3,2.483,2.742,3.162-7.016-.076-9.686-1.829-5.08-8.8-5.08-8.8Z" transform="translate(-1266.326 -1002.982)" fill="#ffb27d"/>
        <path id="Path_18162" data-name="Path 18162" d="M1256.7,876.82s-10.832,1.579-15.015,9.272-14.146,42.95-12,49.111,23.3,32.238,23.3,32.238,5.784-1.482,5.784-4.429c0,0-12.8-30.027-12.583-32.377s12-20.354,11.575-28.5S1256.7,876.82,1256.7,876.82Z" transform="translate(-1215.22 -820.82)" fill="#00aa95"/>
      </g>
      <g id="Group_12443" data-name="Group 12443" transform="translate(632.235 566.807)">
        <path id="Path_18163" data-name="Path 18163" d="M1565.7,1439.4a39.628,39.628,0,0,0,.4,8.289c1.7,13.638,7.256,35.413,7.256,35.413l6.959.844c-.509-3.851.941-18.6,2.865-34.939,2.9-24.653,6.89-52.939,6.89-52.939S1574.925,1383.543,1566,1387,1566.749,1429.842,1565.7,1439.4Z" transform="translate(-1541.302 -1287.741)" fill="#ed975d"/>
        <path id="Path_18164" data-name="Path 18164" d="M1574.6,1580.4c1.7,13.638,7.256,35.413,7.256,35.413l6.959.844c-.509-3.851.941-18.6,2.865-34.939-2.477.436-9.2,1.3-14.819-.815A7.082,7.082,0,0,0,1574.6,1580.4Z" transform="translate(-1549.797 -1420.458)" fill="#dfebfd"/>
        <path id="Path_18165" data-name="Path 18165" d="M1593.759,1094.927a10.128,10.128,0,0,1,7.787,0c4.12,1.763,7.117,9.259,5.272,16.263s4.381,7.12,1.5,12.737c-1.023,1.993-14.557,3.687-15.018-4.069-.287-4.805,4.066-5.045,2.8-10.267S1593.759,1094.927,1593.759,1094.927Z" transform="translate(-1562.58 -1087.812)" fill="#2c3a64"/>
        <path id="Path_18166" data-name="Path 18166" d="M1530.691,1435.361a49.633,49.633,0,0,0,.1,10.908c1.185,13.9,4.96,33.767,4.96,33.767l6.884,1.592c-.262-3.8,1.987-18.1,4.821-34.108,4.41-24.893,10.239-53.9,10.239-53.9s-14.352-13.436-23.478-10.529S1532.324,1425.891,1530.691,1435.361Z" transform="translate(-1518.947 -1285.196)" fill="#ffb27d"/>
        <path id="Path_18167" data-name="Path 18167" d="M1597.093,1688.62a8.151,8.151,0,0,0,4.8,3.744,7.893,7.893,0,0,1,4.729,2.944,1.852,1.852,0,0,1-1.5,2.941l-16.013-.092a2.3,2.3,0,0,1-2.278-2.546c.126-1.185.259-2.565.319-3.624.133-2.312,2.635-4.388,2.635-4.388a16.455,16.455,0,0,0,3.045,1.409A11.413,11.413,0,0,0,1597.093,1688.62Z" transform="translate(-1558.156 -1493.792)" fill="#212d4c"/>
        <path id="Path_18168" data-name="Path 18168" d="M1619.625,1202.49s10.463,17.64,12.573,32.023c0,0-5.089,6.868-7.158,2.044S1608.114,1205.927,1619.625,1202.49Z" transform="translate(-1577.637 -1161.931)" fill="#ffb27d"/>
        <path id="Path_18169" data-name="Path 18169" d="M1560.561,1083.343c-.114-.186-4.8-7.591-13.546-9.067A12.944,12.944,0,0,0,1532.2,1085.2c-1.1,7.143.022,16.4,11.673,19.728Z" transform="translate(-1520.566 -1074.099)" fill="#2c3a64"/>
        <path id="Path_18170" data-name="Path 18170" d="M1580.149,1165.031l-13.186,7.831-3.333-9.281a29.055,29.055,0,0,0,1.974-8.792,36.141,36.141,0,0,0-.212-7.8l11.464,4.979a21.2,21.2,0,0,0-.281,2.572,18.553,18.553,0,0,0,.569,5.929A8.246,8.246,0,0,0,1580.149,1165.031Z" transform="translate(-1542.292 -1123.964)" fill="#ffb27d"/>
        <path id="Path_18171" data-name="Path 18171" d="M1581.4,1176.82c-6.324.234-11.543-5.68-11.543-5.68l10.971-.25A18.664,18.664,0,0,0,1581.4,1176.82Z" transform="translate(-1546.554 -1140.314)" fill="#ed975d"/>
        <path id="Path_18172" data-name="Path 18172" d="M1572.534,1122.506s-12.383,4.126-17.365-5.614c-5.377-10.51-.733-18.714,3.51-19.517,8.463-1.6,13.622,1.336,15.34,4.679S1579.37,1120.292,1572.534,1122.506Z" transform="translate(-1534.845 -1089.715)" fill="#ffb27d"/>
        <path id="Path_18173" data-name="Path 18173" d="M1598.45,1156.845s.61,1.267,3.886.325c0,0,2.752-.79,2.341-2.237A9.153,9.153,0,0,0,1598.45,1156.845Z" transform="translate(-1566.113 -1129.373)" fill="#fff"/>
        <path id="Path_18174" data-name="Path 18174" d="M1515.938,1300.376c3.579,3.418,30.011,10.488,44.909,5.405,2.669-.91-1.6-83.282-4.148-99.188a10.02,10.02,0,0,0-8.539-8.349c-.739-.1-1.542-.2-2.407-.284.183,1.956-.483,3.794-3.892,4.464-4.536.888-8.826-1.974-11.031-3.965-3.551.739-5.617,1.014-8.438,2.189a7.414,7.414,0,0,0-4.486,7.831l.853,6.28,2.714,20.009a26.448,26.448,0,0,1-.057,7.572c-1.156,7.607-2.992,26.132-4.224,40.224C1516.323,1292.482,1515.758,1300.2,1515.938,1300.376Z" transform="translate(-1509.643 -1158.832)" fill="#00aa95"/>
        <path id="Path_18175" data-name="Path 18175" d="M1558.3,1090.744s1.175,11.616-9.847,15.735c-4.382,1.637-6.662-16.108,2.492-19.649s18.187.667,19.267,6.858.256,7.484.256,7.484S1566.187,1089.389,1558.3,1090.744Z" transform="translate(-1529.291 -1081.924)" fill="#2c3a64"/>
        <path id="Path_18176" data-name="Path 18176" d="M1538.838,1213.644s5.054,19.99,5.25,27.942c0,0,11.092,19.374,11.742,20.752s-4,3.26-4,3.26-13.916-14.841-16.6-21.077-12.2-26.517-8.391-32.57S1538.838,1213.644,1538.838,1213.644Z" transform="translate(-1516.517 -1166.82)" fill="#ffb27d"/>
        <path id="Path_18177" data-name="Path 18177" d="M1644.9,1303.826s1,13.619-8.7,24.347c0,0-2.647-3.184-2.312-4.173s4.126-16.165,6.9-18.326S1644.9,1303.826,1644.9,1303.826Z" transform="translate(-1590.334 -1231.243)" fill="#ffb27d"/>
        <path id="Path_18178" data-name="Path 18178" d="M1611.865,1376.46s6.2-.044,6.549,1.412-1.6,6.021-6.132,4.432-4.422-2.584-4.422-2.584Z" transform="translate(-1572.55 -1280.943)" fill="#ffb27d"/>
        <path id="Path_18179" data-name="Path 18179" d="M1626.062,1367.72s-4.985,2.3-3.292,4.758,5.08.986,5.6-.584S1626.062,1367.72,1626.062,1367.72Z" transform="translate(-1582.51 -1274.964)" fill="#ffb27d"/>
        <path id="Path_18180" data-name="Path 18180" d="M1539.186,1223.569a22.671,22.671,0,0,1-16.535,5.115s-4.944-17.517,2.982-19.668S1540.112,1217.245,1539.186,1223.569Z" transform="translate(-1513.217 -1166.197)" fill="#00aa95"/>
        <path id="Path_18181" data-name="Path 18181" d="M1636.78,1212.26l5.734,9.806s-.739,4.549-5.029,5S1636.78,1212.26,1636.78,1212.26Z" transform="translate(-1591.374 -1168.615)" fill="#00aa95"/>
        <path id="Path_18182" data-name="Path 18182" d="M1511.418,1095.021a9.089,9.089,0,0,0-7.787,0c-4.119,1.984-7.117,10.425-5.272,18.313s-4.382,8.018-1.5,14.342c1.023,2.243,14.557,4.151,15.018-4.584.287-5.412-4.066-5.68-2.8-11.559S1511.418,1095.021,1511.418,1095.021Z" transform="translate(-1496.085 -1087.808)" fill="#2c3a64"/>
        <path id="Path_18183" data-name="Path 18183" d="M1533.57,1583.97c1.185,13.9,4.96,33.767,4.96,33.767l6.884,1.592c-.262-3.8,1.987-18.1,4.821-34.108C1546.563,1585.6,1539.8,1585.9,1533.57,1583.97Z" transform="translate(-1521.729 -1422.9)" fill="#fff"/>
        <path id="Path_18184" data-name="Path 18184" d="M1549.433,1688.62a8.151,8.151,0,0,0,4.8,3.744,7.893,7.893,0,0,1,4.729,2.944,1.852,1.852,0,0,1-1.5,2.941l-16.013-.092a2.3,2.3,0,0,1-2.278-2.546c.126-1.185.259-2.565.319-3.624.133-2.312,2.635-4.388,2.635-4.388a16.455,16.455,0,0,0,3.045,1.409A11.413,11.413,0,0,0,1549.433,1688.62Z" transform="translate(-1525.552 -1493.792)" fill="#2c3a64"/>
      </g>
      <g id="Group_12450" data-name="Group 12450" transform="translate(428.376 421.494)">
        <path id="Path_18185" data-name="Path 18185" d="M1111.75,807.43s26.845,46.912,21.459,63.089-23.4,17.21-23.4,17.21Z" transform="translate(-1027.978 -746.359)" fill="#77d1b5"/>
        <path id="Path_18186" data-name="Path 18186" d="M1076.627,1676.737h-37.479c-2.685-1.82.724-19.624.724-19.624s10.229-3.883,11.995,4.012,13.028,10.393,18.986,11.357C1074.93,1673.142,1076.219,1675.382,1076.627,1676.737Z" transform="translate(-978.933 -1326.97)" fill="#233862"/>
        <path id="Path_18187" data-name="Path 18187" d="M900.676,1676.737H863.2c-2.685-1.82.723-19.624.723-19.624s10.229-3.883,11.995,4.012,13.028,10.393,18.986,11.357C898.98,1673.142,900.269,1675.382,900.676,1676.737Z" transform="translate(-858.566 -1326.97)" fill="#233862"/>
        <path id="Path_18188" data-name="Path 18188" d="M1026.184,1140.069s-1.684,21.017-3.665,46.28c-2.692,34.317-9.948,119.406-9.948,119.406s-4.758,4.059-15.3,1.839a333.047,333.047,0,0,1-11.654-62.855q-.062-.825-.123-1.655c-2.5-34.105-6.375-105.923-6.375-105.923Z" transform="translate(-938.573 -971.926)" fill="#2b478b"/>
        <path id="Path_18189" data-name="Path 18189" d="M1026.759,1123.38s-2.259,28.28-4.24,53.543l-36.9,58.389q-.062-.825-.123-1.655c-2.5-34.105-6.375-105.923-6.375-105.923Z" transform="translate(-938.573 -962.499)" fill="#2b478b"/>
        <path id="Path_18190" data-name="Path 18190" d="M935.758,1095.5s-26.763,66.618-35.318,91.871c-6.094,17.988-23.282,81.089-23.282,81.089s-7.474,2.275-13.754-2.123c0,0-6.394-64.47,6.523-82.647,6.852-9.645,1.7-100.255,29.487-101.033S935.758,1095.5,935.758,1095.5Z" transform="translate(-858.33 -934.622)" fill="#2b478b"/>
        <path id="Path_18191" data-name="Path 18191" d="M1009.316,755.828a16.7,16.7,0,0,1-11.531,1.551,23.9,23.9,0,0,1-7.812-3.3,23.374,23.374,0,0,1-3.153-2.372s.139-.2.37-.594c1.207-2.066,4.868-9.487,3.238-21.412-.022-.155,1.159.066,2.944.486,5.31,1.257,15.985,4.287,16.459,4.419h.019s.13,2.508.572,7c.038.395.076.812.12,1.238.054.528.111,1.087.174,1.662C1011.214,749.191,1009.316,755.828,1009.316,755.828Z" transform="translate(-943.841 -693.153)" fill="#ffb27d"/>
        <path id="Path_18192" data-name="Path 18192" d="M1018.75,742.776c-7.929,1.816-19.76-9.888-19.76-9.888a12.513,12.513,0,0,1,2.71-1.538c5.31,1.257,15.985,4.287,16.459,4.419h.019S1018.311,738.278,1018.75,742.776Z" transform="translate(-952.166 -694.313)" fill="#ed975d"/>
        <path id="Path_18193" data-name="Path 18193" d="M992.412,877.289c-.578,7.639-2.192,13.1-5.727,13.1a118.882,118.882,0,0,1-34.513,5.686,86.669,86.669,0,0,1-13.189-1.412c-4.407-.745-7.9-1.5-7.9-1.5-3.778-.872-7.948-3.206-7.389-7.515.294-2.293.512-5.237.657-8.649.01-.218.019-.436.028-.66.414-9.979.347-23.731.4-36.895.038-8.084.117-15.944.389-22.575,0,0-3.709-26.043.407-30.314,4.827-5,19-6.533,19.883-6.34.265-.057.534-.123.806-.171,0,0,12.067,6.8,21.033,1.766,0,0,.082.016.253.041,2.186.344,13.082,2.865,16.844,6.842,1.3,1.368,6.479,9.774,6.625,19.008.2,12.873-.31,27.493-.31,27.5.136,2.091.36,4.786.607,7.863.262,3.279.553,6.982.8,10.842.123,1.946.234,3.933.329,5.917A153.415,153.415,0,0,1,992.412,877.289Z" transform="translate(-900.616 -727.629)" fill="#77d1b5"/>
        <path id="Path_18194" data-name="Path 18194" d="M992.9,780.63s13.353,13.773,22.9,10.952c0,0,1.273-1.861-3.026-2.458S1003.83,788.774,992.9,780.63Z" transform="translate(-948 -728.026)" fill="#77d1b5"/>
        <g id="Group_12444" data-name="Group 12444" transform="translate(30.235)">
          <path id="Path_18195" data-name="Path 18195" d="M1007.522,672.853a40.4,40.4,0,0,1-7.417,1.728c-6.078.821-14.07.338-16.579-7.016-4.23-12.377-9.632-19.8,2.815-24.852,6.662-2.7,10.924-2.849,13.818-1.816a10.028,10.028,0,0,1,5.121,4.432C1007.7,649.115,1012.558,670.685,1007.522,672.853Z" transform="translate(-968.482 -632.028)" fill="#ffb27d"/>
          <path id="Path_18196" data-name="Path 18196" d="M984.217,619.935c2.812.682,4.075,5.111,1.4,6.953-4.8,3.3-10.659,2.006-12.819,2.966-3.1,1.374-3.652,6.568-3.706,8.214s-.272,3.042-4.476,2.057a2.039,2.039,0,0,0-1.526.092c-1.744,1.033.483,6.049,1.156,7.133,0,0,.967,3.592-1.178,5.339-.259.208-4.476,2.05-14.636-13.5a14.436,14.436,0,0,1-.654-13.233c2.464-5.295,10.081-11.85,19.223-11.85C974.234,614.107,978.271,618.488,984.217,619.935Z" transform="translate(-946.478 -614.11)" fill="#163560"/>
          <path id="Path_18197" data-name="Path 18197" d="M1054.845,718.038s.262,1.6-3.466,2.881c0,0-3.127,1.074-3.7-.569A10.637,10.637,0,0,1,1054.845,718.038Z" transform="translate(-1015.71 -685.206)" fill="#fff"/>
        </g>
        <path id="Path_18198" data-name="Path 18198" d="M1027.69,1046.42s10.043,6.628,13.922,7.051c2.638.287,13.056-.136,13.113-1.453.082-1.861-6.365-3.826-8.033-4.571s-2.976-1.608-2.963-2.328,6.457,1.665,5.762.092-6.65-4.309-8.09-4.574-6.081,1.311-7.882.477S1027.69,1046.42,1027.69,1046.42Z" transform="translate(-971.8 -905.874)" fill="#ed975d"/>
        <path id="Path_18199" data-name="Path 18199" d="M962.473,990.989c1.336,2.505-4.407,5.813-4.407,5.813s-15.877,7.55-32.156,8.833c.009-.218.019-.436.028-.66.414-9.979.347-23.731.4-36.895C926.333,968.08,960.268,986.857,962.473,990.989Z" transform="translate(-902.173 -856.259)" fill="#77d1b5"/>
        <path id="Path_18200" data-name="Path 18200" d="M879.207,793s-6.877,2.906-15.056,18.183-15.912,47.629-12.6,52.889,31.23,17.3,55.568,14.093c0,0,6.037-5.5,4.818-7.616,0,0-40.8-16.635-40.828-18.623s14.557-19.131,15.385-27.664S879.207,793,879.207,793Z" transform="translate(-850.769 -736.488)" fill="#77d1b5"/>
        <g id="Group_12449" data-name="Group 12449" transform="translate(40.415 66.31)">
          <path id="Path_18201" data-name="Path 18201" d="M1068.125,915.34s-.483,5.234,0,6.59,14.383,1.662,14.731.389.872-5.137,0-5.816S1068.125,915.34,1068.125,915.34Z" transform="translate(-1039.729 -886.49)" fill="#ffb27d"/>
          <path id="Path_18202" data-name="Path 18202" d="M1060.4,972.364h-3.124A14.1,14.1,0,0,1,1043.21,958.3V944.823c0-7.737.167-14.607,8.485-17.163l14.62,1.1c12.63,3.488,8.147,8.324,8.147,16.057V958.3A14.108,14.108,0,0,1,1060.4,972.364Z" transform="translate(-1022.832 -894.919)" fill="#ffb27d"/>
          <g id="Group_12445" data-name="Group 12445" transform="translate(43.142 16.666)">
            <path id="Path_18203" data-name="Path 18203" d="M1115.27,904.144s3.447.884,5.911-.477c3.551-1.962,7.8-3.058,8.545-3.955,1.257-1.516,7.389-7.762,7.389-7.762l2.948,1.968s-2.837,11.537-5.137,13.6-6.413,9.376-13.347,10.412C1117.971,918.467,1115.27,904.144,1115.27,904.144Z" transform="translate(-1115.27 -887.155)" fill="#ffb27d"/>
            <path id="Path_18204" data-name="Path 18204" d="M1183.242,881.57s-1.077-2.9-.186-3.282,1.406,1.731,1.406,1.731,2.313-4.8,4.666-2.726-2.938,6.245-2.938,6.245Z" transform="translate(-1161.401 -876.772)" fill="#ffb27d"/>
          </g>
          <g id="Group_12446" data-name="Group 12446" transform="translate(0 15.908)">
            <path id="Path_18205" data-name="Path 18205" d="M1014.7,901.754s-3.447.884-5.911-.477c-3.551-1.962-7.8-3.058-8.545-3.955-1.257-1.516-7.389-7.762-7.389-7.762l-2.947,1.968s2.837,11.537,5.137,13.6,6.413,9.376,13.347,10.412C1012,916.077,1014.7,901.754,1014.7,901.754Z" transform="translate(-986.37 -884.762)" fill="#ffb27d"/>
            <path id="Path_18206" data-name="Path 18206" d="M985.191,879.17s1.077-2.9.186-3.282-1.406,1.731-1.406,1.731-2.312-4.8-4.666-2.726,2.938,6.245,2.938,6.245Z" transform="translate(-978.704 -874.372)" fill="#ffb27d"/>
          </g>
          <g id="Group_12447" data-name="Group 12447" transform="translate(41.42 57.85)">
            <path id="Path_18207" data-name="Path 18207" d="M1117.566,1007.14s8.179,3.589,12.494,4.855c4.025,1.185,9,4.006,9.1,4.464s.155,4.451-1.883,5.235-24.176,3.949-27.462,2.657C1109.82,1024.354,1112.18,1008.483,1117.566,1007.14Z" transform="translate(-1109.82 -1007.14)" fill="#ffb27d"/>
            <path id="Path_18208" data-name="Path 18208" d="M1175.043,1010.33a9.581,9.581,0,0,0-6.195,3.137,2.358,2.358,0,0,1-2.6.711s-6.138,3.92-2.227,11.322c0,0,8.271-.515,9.449-1.624S1175.043,1010.33,1175.043,1010.33Z" transform="translate(-1146.005 -1009.322)" fill="#fff"/>
            <path id="Path_18209" data-name="Path 18209" d="M1187.95,1023.863a6.748,6.748,0,0,0,4.875-5.111c.745-4.135-.022-8.046-2.745-8.39a4.6,4.6,0,0,0-5.184,3.1C1184.149,1015.435,1181.96,1024.062,1187.95,1023.863Z" transform="translate(-1160.488 -1009.309)" fill="#afcdfb"/>
          </g>
          <path id="Path_18210" data-name="Path 18210" d="M1058.882,826.974s8.248-.37,11.395,7.471,3.762,21.327-3.532,23.453c-4.975,1.45-10.33.426-15.132-1.412-2.533-.97-3.4-3.108-4.846-4.8C1037.464,840.833,1040.468,827.944,1058.882,826.974Z" transform="translate(-1021.765 -826.038)" fill="#ffb27d"/>
          <path id="Path_18211" data-name="Path 18211" d="M1037.222,1000.97s16.212,3.475,31.234,0a30.007,30.007,0,0,1,1.94,3.8c.471,1.858-.379,4.9-3.718,8.782-4.916,5.705-21.7,9.964-27.591,6.315C1033.924,1016.67,1032.762,1005.781,1037.222,1000.97Z" transform="translate(-1016.845 -945.07)" fill="#fff"/>
          <g id="Group_12448" data-name="Group 12448" transform="translate(23.465 61.419)">
            <path id="Path_18212" data-name="Path 18212" d="M1068.041,1019.826c3.014,1.049,7.38,3.488,11.31,5.68,3.664,2.044,7.891,5.9,7.891,6.369s-.834,4.375-2.995,4.688-24.451-1.5-27.37-3.484a5.671,5.671,0,0,1-3.81-4.818C1052.432,1022.656,1055.184,1015.349,1068.041,1019.826Z" transform="translate(-1052.983 -1018.438)" fill="#ffb27d"/>
            <path id="Path_18213" data-name="Path 18213" d="M1134.824,1034.938a9.566,9.566,0,0,0-6.735,1.69,2.36,2.36,0,0,1-2.695.117s-6.855,2.464-4.678,10.548c0,0,8.182,1.327,9.575.505S1134.824,1034.938,1134.824,1034.938Z" transform="translate(-1099.026 -1029.677)" fill="#fff"/>
            <path id="Path_18214" data-name="Path 18214" d="M1145.2,1047.558a6.749,6.749,0,0,0,5.885-3.908c1.64-3.867,1.757-7.853-.821-8.788a4.6,4.6,0,0,0-5.743,1.876C1143.36,1038.495,1139.316,1046.424,1145.2,1047.558Z" transform="translate(-1113.937 -1029.434)" fill="#afcdfb"/>
          </g>
          <path id="Path_18215" data-name="Path 18215" d="M1106.64,897.732s1.665,1.962,3.851,1.248a4.007,4.007,0,0,0,2.524-3.09A14.114,14.114,0,0,0,1106.64,897.732Z" transform="translate(-1066.224 -873.185)" fill="#fff"/>
          <path id="Path_18216" data-name="Path 18216" d="M1063.831,882.618s-3.2-2.805-4.217-.771,1.308,5.016,3.2,5.051S1065.089,883.515,1063.831,882.618Z" transform="translate(-1033.885 -863.072)" fill="#ed975d"/>
          <path id="Path_18217" data-name="Path 18217" d="M1067.619,883.043s-2.442-2.142-3.219-.588,1,3.829,2.442,3.857S1068.58,883.728,1067.619,883.043Z" transform="translate(-1037.199 -863.607)" fill="#ffb27d"/>
          <path id="Path_18218" data-name="Path 18218" d="M1065.169,829.066s3.958,5.383,12.279,5.184c0,0,3.27-.474,4.657-2.59,0,0-2.625,1.055-4.012.607,0,0,7.844-1.2,7.746-3.295s-4.217-4.448-7.222-4.808c-2.391-.287-9.622-.24-11.808.96S1064.556,828.368,1065.169,829.066Z" transform="translate(-1037.626 -824.016)" fill="#ff9843"/>
          <path id="Path_18219" data-name="Path 18219" d="M1053.527,825.63s-9.079,1.475-10.7,8.713c-.651,2.913.724,7.158.724,7.158s-.183-8.615,7.076-8.978c5.282-.262,8.744-.8,8.744-.8Z" transform="translate(-1022.453 -825.12)" fill="#ff9843"/>
          <path id="Path_18220" data-name="Path 18220" d="M1078.833,961.787a.547.547,0,1,1-.547-.547A.547.547,0,0,1,1078.833,961.787Z" transform="translate(-1046.454 -917.89)" fill="#ed975d"/>
          <path id="Path_18221" data-name="Path 18221" d="M1122.053,961.787a.547.547,0,1,1-.546-.547A.547.547,0,0,1,1122.053,961.787Z" transform="translate(-1076.021 -917.89)" fill="#ed975d"/>
        </g>
        <path id="Path_18222" data-name="Path 18222" d="M1113.8,978.481a5.649,5.649,0,0,0-3.1-3.671,35.952,35.952,0,0,0-5.948-2.331c-2.044-.373-6.227-2.831-6.565-1.551s2.951,2.758,2.966,4.164-9.243,4.852-9,6.312,2.887,4.726,6.473,3.854,12.5-2.96,14.557-3.538C1114.279,981.413,1114.172,979.9,1113.8,978.481Z" transform="translate(-1015.9 -857.957)" fill="#ed975d"/>
      </g>
    </g>
  </g>
</svg>
